# xmcd
# 
# Track frame offsets:
#     150
#     16644
#     33797
#     48798
#     62574
#     75724
#     91813
#     106227
#     121214
#     137064
#     146611
#     161062
# 
# Disc length: 2416
# 
# Revision: 5
# Processed by: cddbd v1.5.2PL0 Copyright (c) Steve Scherf et al.
# Submitted via: BonkEnc v1.0
# 
DISCID=8a096e0c
DTITLE=Gino e Geno - Ela Chorou de Amor
DYEAR=2002
DGENRE=Sertanejo
TTITLE0=Ela Chorou de Amor
TTITLE1=Mulher que não dá voa
TTITLE2=Deixe seu recado
TTITLE3=Indo prá Goiania
TTITLE4=Sou feio mas to na moda
TTITLE5=Pinga na Garganta
TTITLE6=O que é que ela tem
TTITLE7=O Gato Comeu
TTITLE8=Tição Aceso
TTITLE9=Trem tá Feio
TTITLE10=Nóis não vive é sem Dinheiro
TTITLE11=Nossa Senhora Aparecida
EXTD=
EXTT0=
EXTT1=
EXTT2=
EXTT3=
EXTT4=
EXTT5=
EXTT6=
EXTT7=
EXTT8=
EXTT9=
EXTT10=
EXTT11=
PLAYORDER=
